<svg aria-hidden="true" style="position: absolute; width: 20; height: 20; overflow: hidden;" version="1.1" xmlns="http://www.w3.org/2000/svg" xmlns:xlink="http://www.w3.org/1999/xlink">
<defs>
<symbol id="icon-facebook" viewBox="0 0 32 32">
<path d="M19 6h5v-6h-5c-3.86 0-7 3.14-7 7v3h-4v6h4v16h6v-16h5l1-6h-6v-3c0-0.542 0.458-1 1-1z"></path>
</symbol>
<symbol id="icon-instagram" viewBox="0 0 32 32">
<path d="M16 2.881c4.275 0 4.781 0.019 6.462 0.094 1.563 0.069 2.406 0.331 2.969 0.55 0.744 0.288 1.281 0.638 1.837 1.194 0.563 0.563 0.906 1.094 1.2 1.838 0.219 0.563 0.481 1.412 0.55 2.969 0.075 1.688 0.094 2.194 0.094 6.463s-0.019 4.781-0.094 6.463c-0.069 1.563-0.331 2.406-0.55 2.969-0.288 0.744-0.637 1.281-1.194 1.837-0.563 0.563-1.094 0.906-1.837 1.2-0.563 0.219-1.413 0.481-2.969 0.55-1.688 0.075-2.194 0.094-6.463 0.094s-4.781-0.019-6.463-0.094c-1.563-0.069-2.406-0.331-2.969-0.55-0.744-0.288-1.281-0.637-1.838-1.194-0.563-0.563-0.906-1.094-1.2-1.837-0.219-0.563-0.481-1.413-0.55-2.969-0.075-1.688-0.094-2.194-0.094-6.463s0.019-4.781 0.094-6.463c0.069-1.563 0.331-2.406 0.55-2.969 0.288-0.744 0.638-1.281 1.194-1.838 0.563-0.563 1.094-0.906 1.838-1.2 0.563-0.219 1.412-0.481 2.969-0.55 1.681-0.075 2.188-0.094 6.463-0.094zM16 0c-4.344 0-4.887 0.019-6.594 0.094-1.7 0.075-2.869 0.35-3.881 0.744-1.056 0.412-1.95 0.956-2.837 1.85-0.894 0.888-1.438 1.781-1.85 2.831-0.394 1.019-0.669 2.181-0.744 3.881-0.075 1.713-0.094 2.256-0.094 6.6s0.019 4.887 0.094 6.594c0.075 1.7 0.35 2.869 0.744 3.881 0.413 1.056 0.956 1.95 1.85 2.837 0.887 0.887 1.781 1.438 2.831 1.844 1.019 0.394 2.181 0.669 3.881 0.744 1.706 0.075 2.25 0.094 6.594 0.094s4.888-0.019 6.594-0.094c1.7-0.075 2.869-0.35 3.881-0.744 1.050-0.406 1.944-0.956 2.831-1.844s1.438-1.781 1.844-2.831c0.394-1.019 0.669-2.181 0.744-3.881 0.075-1.706 0.094-2.25 0.094-6.594s-0.019-4.887-0.094-6.594c-0.075-1.7-0.35-2.869-0.744-3.881-0.394-1.063-0.938-1.956-1.831-2.844-0.887-0.887-1.781-1.438-2.831-1.844-1.019-0.394-2.181-0.669-3.881-0.744-1.712-0.081-2.256-0.1-6.6-0.1v0z"></path>
<path d="M16 7.781c-4.537 0-8.219 3.681-8.219 8.219s3.681 8.219 8.219 8.219 8.219-3.681 8.219-8.219c0-4.537-3.681-8.219-8.219-8.219zM16 21.331c-2.944 0-5.331-2.387-5.331-5.331s2.387-5.331 5.331-5.331c2.944 0 5.331 2.387 5.331 5.331s-2.387 5.331-5.331 5.331z"></path>
<path d="M26.462 7.456c0 1.060-0.859 1.919-1.919 1.919s-1.919-0.859-1.919-1.919c0-1.060 0.859-1.919 1.919-1.919s1.919 0.859 1.919 1.919z"></path>
</symbol>
<symbol id="icon-twitter" viewBox="0 0 32 32">
<path d="M32 7.075c-1.175 0.525-2.444 0.875-3.769 1.031 1.356-0.813 2.394-2.1 2.887-3.631-1.269 0.75-2.675 1.3-4.169 1.594-1.2-1.275-2.906-2.069-4.794-2.069-3.625 0-6.563 2.938-6.563 6.563 0 0.512 0.056 1.012 0.169 1.494-5.456-0.275-10.294-2.888-13.531-6.862-0.563 0.969-0.887 2.1-0.887 3.3 0 2.275 1.156 4.287 2.919 5.463-1.075-0.031-2.087-0.331-2.975-0.819 0 0.025 0 0.056 0 0.081 0 3.181 2.263 5.838 5.269 6.437-0.55 0.15-1.131 0.231-1.731 0.231-0.425 0-0.831-0.044-1.237-0.119 0.838 2.606 3.263 4.506 6.131 4.563-2.25 1.762-5.075 2.813-8.156 2.813-0.531 0-1.050-0.031-1.569-0.094 2.913 1.869 6.362 2.95 10.069 2.95 12.075 0 18.681-10.006 18.681-18.681 0-0.287-0.006-0.569-0.019-0.85 1.281-0.919 2.394-2.075 3.275-3.394z"></path>
</symbol>
<symbol id="icon-linkedin2" viewBox="0 0 32 32">
<path d="M12 12h5.535v2.837h0.079c0.77-1.381 2.655-2.837 5.464-2.837 5.842 0 6.922 3.637 6.922 8.367v9.633h-5.769v-8.54c0-2.037-0.042-4.657-3.001-4.657-3.005 0-3.463 2.218-3.463 4.509v8.688h-5.767v-18z"></path>
<path d="M2 12h6v18h-6v-18z"></path>
<path d="M8 7c0 1.657-1.343 3-3 3s-3-1.343-3-3c0-1.657 1.343-3 3-3s3 1.343 3 3z"></path>
</symbol>
<symbol id="icon-logo1" viewBox="0 0 45 50">
<path d="M6 0L13.3076 6.91796H33.6924V26.2158L41 33.1338V0H6Z"/>
<path d="M0 6.62646V38.8137H34V26.0195L13.5231 6.63443L0 6.62646ZM27.5231 34.1055H5.38008V12.4579H6.9453V32.6397H27.5231V34.1055Z"/>
<path d="M9.79102 44.7837L10.6089 43.0991H11.2925L10.1011 45.3452V46.6538H9.48096V45.3452L8.28711 43.0991H8.97314L9.79102 44.7837ZM13.3018 45.8262H11.9248L11.6367 46.6538H10.9946L12.3374 43.0991H12.8916L14.2368 46.6538H13.5923L13.3018 45.8262ZM12.0981 45.3281H13.1284L12.6133 43.8535L12.0981 45.3281ZM15.7358 45.6943C15.7358 45.5299 15.7806 45.3794 15.8701 45.2427C15.9596 45.1043 16.1362 44.9408 16.3999 44.752C16.2616 44.5778 16.1647 44.4297 16.1094 44.3076C16.0557 44.1855 16.0288 44.0675 16.0288 43.9536C16.0288 43.6753 16.1134 43.4556 16.2827 43.2944C16.452 43.1317 16.6799 43.0503 16.9663 43.0503C17.2251 43.0503 17.4367 43.1268 17.6011 43.2798C17.7671 43.4312 17.8501 43.6191 17.8501 43.8438C17.8501 43.9919 17.8127 44.1286 17.7378 44.2539C17.6629 44.3776 17.54 44.5013 17.3691 44.625L17.1274 44.8008L17.8135 45.6113C17.9128 45.416 17.9624 45.1987 17.9624 44.9595H18.4775C18.4775 45.3973 18.375 45.7562 18.1699 46.0361L18.6924 46.6538H18.0039L17.8037 46.417C17.5498 46.6074 17.2471 46.7026 16.8955 46.7026C16.5439 46.7026 16.2624 46.6099 16.0508 46.4243C15.8408 46.2371 15.7358 45.9938 15.7358 45.6943ZM16.9126 46.229C17.1128 46.229 17.3 46.1623 17.4741 46.0288L16.6978 45.1133L16.6221 45.167C16.4268 45.3151 16.3291 45.4844 16.3291 45.6748C16.3291 45.8392 16.382 45.9727 16.4878 46.0752C16.5936 46.1777 16.7352 46.229 16.9126 46.229ZM16.5854 43.939C16.5854 44.0757 16.6693 44.2474 16.8369 44.4541L17.1079 44.2686L17.1836 44.2075C17.2845 44.118 17.335 44.0033 17.335 43.8633C17.335 43.7705 17.3 43.6916 17.23 43.6265C17.16 43.5597 17.0713 43.5264 16.9639 43.5264C16.8483 43.5264 16.7563 43.5654 16.688 43.6436C16.6196 43.7217 16.5854 43.8201 16.5854 43.939ZM23.043 45.4966C23.0072 45.8758 22.8672 46.172 22.623 46.3853C22.3789 46.5968 22.0542 46.7026 21.6489 46.7026C21.3657 46.7026 21.1159 46.6359 20.8994 46.5024C20.6846 46.3674 20.5186 46.1761 20.4014 45.9287C20.2842 45.6813 20.2231 45.394 20.2183 45.0669V44.7349C20.2183 44.3996 20.2777 44.1042 20.3965 43.8486C20.5153 43.5931 20.6854 43.3962 20.9067 43.2578C21.1297 43.1195 21.3869 43.0503 21.6782 43.0503C22.0705 43.0503 22.3862 43.1569 22.6255 43.3701C22.8647 43.5833 23.0039 43.8844 23.043 44.2734H22.4277C22.3984 44.0179 22.3236 43.834 22.2031 43.7217C22.0843 43.6077 21.9093 43.5508 21.6782 43.5508C21.4097 43.5508 21.203 43.6493 21.0581 43.8462C20.9149 44.0415 20.8416 44.3288 20.8384 44.708V45.0229C20.8384 45.4071 20.9067 45.7 21.0435 45.9019C21.1818 46.1037 21.3836 46.2046 21.6489 46.2046C21.8914 46.2046 22.0737 46.1501 22.1958 46.041C22.3179 45.932 22.3952 45.7505 22.4277 45.4966H23.043ZM26.4341 44.9692C26.4341 45.3175 26.3739 45.6235 26.2534 45.8872C26.133 46.1493 25.9604 46.3511 25.7358 46.4927C25.5129 46.6326 25.2557 46.7026 24.9644 46.7026C24.6763 46.7026 24.4191 46.6326 24.1929 46.4927C23.9683 46.3511 23.7941 46.1501 23.6704 45.8896C23.5483 45.6292 23.4865 45.3289 23.4849 44.9888V44.7886C23.4849 44.4419 23.5459 44.1359 23.668 43.8706C23.7917 43.6053 23.965 43.4027 24.188 43.2627C24.4126 43.1211 24.6698 43.0503 24.9595 43.0503C25.2492 43.0503 25.5055 43.1203 25.7285 43.2603C25.9531 43.3986 26.1265 43.5988 26.2485 43.8608C26.3706 44.1213 26.4325 44.4248 26.4341 44.7715V44.9692ZM25.8164 44.7837C25.8164 44.3898 25.7415 44.0879 25.5918 43.8779C25.4437 43.668 25.2329 43.563 24.9595 43.563C24.6925 43.563 24.4834 43.668 24.332 43.8779C24.1823 44.0863 24.1058 44.3817 24.1025 44.7642V44.9692C24.1025 45.3599 24.1782 45.6618 24.3296 45.875C24.4826 46.0882 24.6942 46.1948 24.9644 46.1948C25.2378 46.1948 25.4478 46.0907 25.5942 45.8823C25.7424 45.674 25.8164 45.3696 25.8164 44.9692V44.7837Z"/>
</symbol>
<symbol id="icon-logo2" viewBox="0 0 40 52">
<path d="M16.977 2.93452H17.1136C17.3666 2.93452 17.6398 2.95995 17.9105 2.98284C19.1032 3.06695 20.2874 3.24551 21.4521 3.51685V0.653528C20.2528 0.352628 19.0297 0.157776 17.7967 0.0712015C17.3287 0.0356008 16.8303 0.0127146 16.3193 0H15.8918C13.4169 0.00930695 10.9527 0.327052 8.55557 0.945963C5.82533 1.62687 3.20469 2.69275 0.771606 4.11189V32.5086C3.11433 31.2357 5.60716 30.2643 8.19129 29.6173C10.2317 29.0967 12.3175 28.7765 14.4195 28.6612H14.503C14.8546 28.6434 15.2062 28.6332 15.568 28.6306V25.7216C12.8367 25.7567 10.1193 26.1178 7.47285 26.7972C6.49384 27.0515 5.54773 27.3261 4.65979 27.6313L3.6479 27.9746V5.83344L4.08049 5.62492C7.38171 4.05951 10.9522 3.14863 14.5966 2.94215C14.6269 2.93994 14.6573 2.93994 14.6876 2.94215C15.0898 2.92181 15.4946 2.91163 15.8918 2.91163H16.3269H16.3471C16.5571 2.91672 16.7671 2.92181 16.977 2.93452Z"/>
<path d="M24.1108 5.93259C23.4455 5.93259 22.7877 5.9097 22.1528 5.86138C21.3939 5.80544 20.6147 5.7139 19.876 5.58929C19.4257 5.51301 18.983 5.42146 18.553 5.32229V33.3935C20.3737 33.8443 22.2433 34.0647 24.1184 34.0496C26.5931 34.0395 29.0571 33.7227 31.4546 33.1061C34.1853 32.4243 36.8067 31.3585 39.2411 29.9402V2.04956C36.8986 3.32178 34.4068 4.29396 31.8239 4.94339C29.3031 5.59083 26.7125 5.92307 24.1108 5.93259ZM35.3352 6.41828L36.3471 6.07753V28.2263L35.9145 28.4348C34.2552 29.2243 32.5223 29.8469 30.7412 30.2937C28.5781 30.8533 26.3544 31.1412 24.1209 31.1506C23.4531 31.1506 22.7903 31.1227 22.1477 31.0667L21.4546 31.0057V28.3178V8.22883L22.2616 8.28224C22.8485 8.32038 23.4556 8.33818 24.1158 8.33818C26.9514 8.3281 29.7749 7.96596 32.5221 7.25998C33.4657 7.01078 34.4042 6.73106 35.3352 6.41828Z"/>
<path d="M2.73713 42.2124C2.59166 42.0615 2.41629 41.943 2.22236 41.8646C2.02844 41.7862 1.82029 41.7496 1.61141 41.7572C1.38879 41.7542 1.16781 41.7957 0.961267 41.8793C0.771901 41.9547 0.599767 42.068 0.455322 42.2124C0.312451 42.3572 0.201292 42.5304 0.128988 42.721C0.0496792 42.9207 0.0101425 43.1341 0.0126205 43.3491V47.1431C0.00357283 47.4104 0.0545882 47.6764 0.161874 47.9212C0.251433 48.1156 0.380725 48.2889 0.541333 48.4298C0.692953 48.5575 0.870978 48.6495 1.06246 48.6994C1.24694 48.7512 1.43755 48.7777 1.62911 48.7782C1.84041 48.7803 2.04953 48.7351 2.24131 48.646C2.43095 48.563 2.60277 48.4438 2.74725 48.295C2.88814 48.1476 3.00052 47.9752 3.07865 47.7864C3.15973 47.5951 3.20105 47.3892 3.20007 47.1812V46.7566H2.20842V47.0948C2.21137 47.2103 2.1916 47.3252 2.15024 47.433C2.11794 47.5137 2.06877 47.5866 2.00604 47.6466C1.94461 47.6962 1.87416 47.7334 1.79861 47.7559C1.73164 47.7782 1.6617 47.7902 1.59117 47.7915C1.50263 47.8018 1.41296 47.7885 1.33122 47.7527C1.24948 47.717 1.17858 47.6602 1.1257 47.5881C1.03222 47.4356 0.986395 47.2585 0.994154 47.0795V43.5423C0.988002 43.3462 1.02969 43.1515 1.11558 42.9753C1.16706 42.8952 1.2399 42.8313 1.32578 42.7908C1.41166 42.7503 1.50713 42.7349 1.60129 42.7464C1.68676 42.7434 1.7717 42.7612 1.8488 42.7984C1.92591 42.8356 1.99289 42.8911 2.04399 42.96C2.15496 43.1057 2.21298 43.2852 2.20842 43.4686V43.7966H3.18995V43.4101C3.19195 43.1831 3.15073 42.9578 3.06853 42.7464C2.99527 42.5476 2.88251 42.3659 2.73713 42.2124Z"/>
<path d="M8.62892 42.1691C8.31271 41.9021 7.91362 41.7546 7.50066 41.7521C7.29868 41.7529 7.09838 41.7891 6.9087 41.8589C6.71613 41.9279 6.53841 42.0332 6.38505 42.1691C6.22076 42.3168 6.08968 42.498 6.00053 42.7006C5.90063 42.9323 5.85146 43.183 5.85634 43.4355V47.0744C5.8495 47.3304 5.89873 47.5847 6.00053 47.8195C6.09028 48.0151 6.22152 48.1887 6.38505 48.328C6.53665 48.4688 6.71468 48.5777 6.9087 48.6485C7.09838 48.7183 7.29868 48.7544 7.50066 48.7553C7.70269 48.7549 7.90307 48.7187 8.09262 48.6485C8.28995 48.5767 8.47195 48.468 8.62892 48.328C8.7871 48.1861 8.91454 48.013 9.00332 47.8195C9.10512 47.5847 9.15435 47.3304 9.14751 47.0744V43.4355C9.15239 43.183 9.10322 42.9323 9.00332 42.7006C8.91505 42.5001 8.78775 42.3194 8.62892 42.1691ZM8.16598 47.0744C8.17434 47.1714 8.16095 47.269 8.1268 47.3601C8.09265 47.4512 8.03861 47.5334 7.96866 47.6008C7.83768 47.7106 7.67251 47.7708 7.50193 47.7708C7.33135 47.7708 7.16617 47.7106 7.03519 47.6008C6.96524 47.5334 6.9112 47.4512 6.87705 47.3601C6.8429 47.269 6.82952 47.1714 6.83787 47.0744V43.4355C6.82952 43.3385 6.8429 43.2409 6.87705 43.1498C6.9112 43.0587 6.96524 42.9764 7.03519 42.9091C7.16617 42.7993 7.33135 42.7391 7.50193 42.7391C7.67251 42.7391 7.83768 42.7993 7.96866 42.9091C8.03861 42.9764 8.09265 43.0587 8.1268 43.1498C8.16095 43.2409 8.17434 43.3385 8.16598 43.4355V47.0744Z"/>
<path d="M16.3673 48.6994V41.8107H15.4136L14.1614 45.4572H14.1437L12.8813 41.8107H11.9377V48.6994H12.9218V44.5087H12.9395L13.9033 47.4712H14.3941L15.3655 44.5087H15.3832V48.6994H16.3673Z"/>
<path d="M21.9581 42.2937C21.8065 42.1237 21.6153 41.9943 21.4015 41.9173C21.1712 41.8424 20.9302 41.8063 20.6881 41.8105H19.226V48.6993H20.2075V46.0089H20.7134C21.0197 46.0228 21.3244 45.958 21.5988 45.8207C21.822 45.6968 22.0081 45.515 22.1377 45.2943C22.2512 45.1111 22.3277 44.9071 22.3628 44.6942C22.4014 44.435 22.4192 44.173 22.4159 43.911C22.4255 43.5802 22.3932 43.2495 22.3198 42.9269C22.2543 42.6885 22.1299 42.4706 21.9581 42.2937ZM21.4521 44.3941C21.4479 44.5188 21.4168 44.6412 21.361 44.7527C21.3049 44.8586 21.2162 44.9434 21.1081 44.9942C20.9627 45.0593 20.8041 45.0889 20.6451 45.0807H20.1974V42.7387H20.7033C20.8557 42.7312 21.0075 42.7609 21.146 42.8251C21.2475 42.8834 21.3281 42.9724 21.3762 43.0794C21.4299 43.2004 21.4591 43.331 21.4622 43.4634C21.4622 43.6084 21.4622 43.7609 21.4622 43.9211C21.4622 44.0813 21.4723 44.2466 21.4622 44.3941H21.4521Z"/>
<path d="M26.6077 41.8107H25.8032L24.2854 48.6994H25.2669L25.5553 47.2194H26.8935L27.1819 48.6994H28.1635L26.6077 41.8107ZM25.702 46.2811L26.1852 43.784H26.2029L26.6836 46.2811H25.702Z"/>
<path d="M32.9497 45.9607H32.932L31.4496 41.8107H30.506V48.6994H31.4875V44.557H31.5078L33.0079 48.6994H33.9312V41.8107H32.9497V45.9607Z"/>
<path d="M38.9476 41.8107L38.1583 44.5494H38.1381L37.3488 41.8107H36.3091L37.6574 45.7878V48.6994H38.639V45.7878L39.9873 41.8107H38.9476Z"/>
<path d="M0 50.6445H0.473058V51.9719H0.794333V50.6445H1.26486V50.3724H0V50.6445Z"/>
<path d="M3.97672 50.3724L3.35693 51.9719H3.69845L3.82999 51.6083H4.46748L4.60409 51.9719H4.95319L4.31823 50.3724H3.97672ZM3.92612 51.3387L4.14368 50.7462L4.36123 51.3387H3.92612Z"/>
<path d="M7.90793 51.3821H8.27727V51.5881C8.16941 51.6746 8.03576 51.722 7.89781 51.7229C7.8333 51.7265 7.76886 51.7145 7.70988 51.688C7.65091 51.6614 7.59911 51.6211 7.55883 51.5703C7.47402 51.4485 7.43217 51.3017 7.43993 51.1533C7.43993 50.7973 7.59424 50.6193 7.90034 50.6193C7.98091 50.6112 8.06168 50.6325 8.12804 50.6791C8.19439 50.7257 8.24194 50.7947 8.26209 50.8735L8.57831 50.8125C8.51001 50.4997 8.28486 50.3421 7.90034 50.3421C7.69468 50.3366 7.4947 50.4103 7.34127 50.5481C7.26069 50.6276 7.19834 50.7239 7.15858 50.8302C7.11882 50.9365 7.10261 51.0502 7.11107 51.1634C7.10175 51.3823 7.17493 51.5966 7.31598 51.7636C7.39434 51.8444 7.4892 51.9071 7.59401 51.9475C7.69883 51.9879 7.8111 52.0049 7.92311 51.9975C8.17338 52.0045 8.41652 51.9133 8.60108 51.7432V51.1126H7.90793V51.3821Z"/>
<path d="M11.9226 50.3724H11.5988V51.9719H12.7194V51.6998H11.9226V50.3724Z"/>
<path d="M15.3175 50.3724H14.9937V51.9719H15.3175V50.3724Z"/>
<path d="M18.6365 51.4405L17.9813 50.3724H17.6676V51.9719H17.9686V50.9268L18.6112 51.9719H18.9325V50.3724H18.6365V51.4405Z"/>
<path d="M21.6368 51.2675H22.4337V50.9954H21.6368V50.6445H22.4944V50.3724H21.313V51.9719H22.5273V51.6998H21.6368V51.2675Z"/>
<path d="M28.9122 51.0031H28.2823V50.3724H27.9611V51.9719H28.2823V51.2726H28.9122V51.9719H29.2335V50.3724H28.9122V51.0031Z"/>
<path d="M31.9302 51.2675H32.7296V50.9954H31.9302V50.6445H32.7903V50.3724H31.6089V51.9719H32.8206V51.6998H31.9302V51.2675Z"/>
<path d="M36.0233 51.2676C36.3015 51.2244 36.4432 51.0769 36.4432 50.8226C36.4513 50.7546 36.441 50.6856 36.4134 50.623C36.3858 50.5603 36.3419 50.5063 36.2863 50.4666C36.1415 50.3938 35.9799 50.3614 35.8183 50.3725H35.1404V51.972H35.4617V51.3032H35.5249C35.5934 51.299 35.6619 51.3112 35.7247 51.3388C35.7717 51.3678 35.8108 51.4079 35.8386 51.4558L36.1877 51.9644H36.5722L36.3774 51.6516C36.2913 51.4972 36.1699 51.3656 36.0233 51.2676ZM35.6994 51.0464H35.4617V50.6446H35.7146C35.8248 50.6357 35.9357 50.6486 36.041 50.6827C36.0644 50.7034 36.0828 50.7291 36.095 50.7579C36.1072 50.7867 36.1127 50.8179 36.1113 50.8492C36.1098 50.8804 36.1014 50.911 36.0866 50.9385C36.0718 50.966 36.051 50.9899 36.0258 51.0082C35.9202 51.0406 35.8096 51.0535 35.6994 51.0464Z"/>
<path d="M39.1096 51.2675H39.9064V50.9954H39.1096V50.6445H39.9697V50.3724H38.7858V51.9719H40V51.6998H39.1096V51.2675Z"/>
</symbol>
<symbol id="icon-logo3" viewBox="0 0 41 43">
<path d="M6.34547 41.7946C6.36049 41.795 6.37527 41.7982 6.38896 41.8041C6.40265 41.81 6.41497 41.8184 6.42521 41.8289L6.63098 42.0446C6.47126 42.2191 6.27385 42.3588 6.05225 42.4539C5.79275 42.5577 5.51308 42.6078 5.23174 42.6009C4.96736 42.6061 4.7047 42.5594 4.4601 42.4637C4.23945 42.3758 4.04121 42.2437 3.87879 42.0764C3.71303 41.9029 3.58535 41.6996 3.50326 41.4784C3.41336 41.2318 3.36898 40.9723 3.37208 40.7113C3.36843 40.4486 3.41641 40.1875 3.51355 39.9417C3.6034 39.7191 3.73894 39.5158 3.91223 39.3436C4.08787 39.1749 4.29797 39.0423 4.52954 38.9539C4.78288 38.8604 5.05265 38.8138 5.32433 38.8167C5.5767 38.8108 5.82773 38.8534 6.06254 38.9417C6.26625 39.0259 6.4533 39.1428 6.61555 39.2873L6.44321 39.5177C6.43131 39.5339 6.41651 39.548 6.39949 39.5593C6.37915 39.5726 6.35458 39.5787 6.33004 39.5765C6.30334 39.5747 6.27761 39.5663 6.25545 39.552L6.16285 39.4907L6.03424 39.4123C5.97873 39.3832 5.92114 39.3578 5.86191 39.3363C5.78562 39.3103 5.70738 39.2898 5.62785 39.275C5.52691 39.2573 5.42439 39.2491 5.32176 39.2505C5.12612 39.2482 4.93197 39.2832 4.75075 39.3534C4.58174 39.4185 4.42918 39.5171 4.3032 39.6427C4.17494 39.7762 4.0761 39.9329 4.01254 40.1034C3.9401 40.2985 3.9044 40.5043 3.90709 40.7113C3.904 40.9214 3.93969 41.1305 4.01254 41.3289C4.07531 41.498 4.17231 41.6537 4.29805 41.7872C4.41586 41.9117 4.56188 42.0089 4.72503 42.0715C4.89292 42.1379 5.07314 42.1712 5.25489 42.1696C5.35987 42.1711 5.46481 42.1646 5.56869 42.15C5.7383 42.1302 5.901 42.0741 6.04453 41.9858C6.11653 41.9405 6.18449 41.8897 6.24773 41.8338C6.27417 41.8098 6.30895 41.7958 6.34547 41.7946Z"/>
<path d="M12.2871 40.7108C12.2903 40.9709 12.2432 41.2292 12.1482 41.473C12.0644 41.6941 11.9323 41.8958 11.7608 42.0648C11.5892 42.2338 11.382 42.3662 11.1528 42.4533C10.6492 42.6363 10.0925 42.6363 9.58896 42.4533C9.36125 42.3648 9.15539 42.2321 8.98452 42.0636C8.81305 41.8916 8.68004 41.6882 8.59356 41.4657C8.40827 40.972 8.40827 40.4325 8.59356 39.9388C8.6813 39.7162 8.81414 39.5122 8.98452 39.3384C9.15685 39.1752 9.3626 39.0476 9.58896 38.9635C10.0919 38.7772 10.6499 38.7772 11.1528 38.9635C11.3813 39.0519 11.588 39.1846 11.7598 39.3531C11.9292 39.5235 12.0612 39.7243 12.1482 39.9437C12.2435 40.1892 12.2906 40.4492 12.2871 40.7108ZM11.747 40.7108C11.751 40.5028 11.718 40.2956 11.6492 40.0981C11.5916 39.929 11.4979 39.7729 11.374 39.6399C11.2534 39.5139 11.1049 39.4152 10.9393 39.3507C10.5734 39.2167 10.1684 39.2167 9.80245 39.3507C9.63684 39.4152 9.48836 39.5139 9.36776 39.6399C9.24215 39.7722 9.14747 39.9284 9.08997 40.0981C8.9591 40.4971 8.9591 40.9246 9.08997 41.3235C9.14803 41.4931 9.24265 41.6492 9.36776 41.7818C9.48851 41.907 9.637 42.0049 9.80245 42.0685C10.169 42.1991 10.5728 42.1991 10.9393 42.0685C11.1048 42.0049 11.2533 41.907 11.374 41.7818C11.4974 41.6484 11.591 41.4925 11.6492 41.3235C11.7183 41.1261 11.7513 40.9189 11.747 40.7108Z"/>
<path d="M16.3408 41.3532L16.3948 41.4904C16.4154 41.4414 16.4334 41.3973 16.454 41.3532C16.4736 41.3071 16.4959 41.2621 16.5209 41.2184L17.8352 38.942C17.861 38.9028 17.8841 38.8783 17.9098 38.8709C17.9448 38.8608 17.9814 38.8566 18.0179 38.8587H18.4062V42.5613H17.9458V39.8388C17.9458 39.8045 17.9458 39.7653 17.9458 39.7237C17.9434 39.6812 17.9434 39.6387 17.9458 39.5962L16.6238 41.9046C16.607 41.9391 16.5801 41.9684 16.5464 41.9888C16.5126 42.0092 16.4734 42.02 16.4334 42.0197H16.3588C16.3188 42.0203 16.2794 42.0097 16.2456 41.9892C16.2118 41.9687 16.185 41.9393 16.1685 41.9046L14.8078 39.5815C14.8078 39.6256 14.8078 39.6698 14.8078 39.7139C14.8078 39.758 14.8078 39.7972 14.8078 39.8315V42.5539H14.3629V38.8587H14.7512C14.7877 38.8566 14.8243 38.8608 14.8593 38.8709C14.8912 38.886 14.9166 38.9111 14.9313 38.942L16.274 41.2209C16.3003 41.263 16.3227 41.3073 16.3408 41.3532Z"/>
<path d="M21.2871 41.1692V42.5562H20.7726V38.8585H21.9198C22.1364 38.8546 22.3523 38.8818 22.5603 38.9394C22.7268 38.9843 22.8812 39.0629 23.013 39.1697C23.1272 39.2699 23.2153 39.394 23.2702 39.5324C23.3309 39.6832 23.3606 39.8438 23.3576 40.0053C23.3599 40.1675 23.3275 40.3284 23.2625 40.4782C23.2006 40.6201 23.1056 40.7466 22.9847 40.8482C22.8527 40.9595 22.6976 41.043 22.5294 41.0933C22.3292 41.1542 22.1197 41.1832 21.9095 41.179L21.2871 41.1692ZM21.2871 40.7723H21.9095C22.0447 40.7739 22.1793 40.7549 22.3082 40.7159C22.4145 40.6818 22.5125 40.6277 22.5963 40.5566C22.6736 40.4888 22.7334 40.405 22.7712 40.3116C22.8133 40.2128 22.8343 40.107 22.8329 40.0004C22.8389 39.8976 22.8213 39.7948 22.7813 39.6992C22.7413 39.6035 22.68 39.5174 22.6014 39.4466C22.4049 39.3004 22.1581 39.2296 21.9095 39.2481H21.2871V40.7723Z"/>
<path d="M28.201 42.5612H27.7946C27.7538 42.5626 27.7138 42.5505 27.6814 42.5268C27.6522 42.5038 27.6293 42.4744 27.6145 42.4411L27.2647 41.5466H25.508L25.1453 42.4411C25.132 42.4738 25.1098 42.5025 25.081 42.5244C25.0483 42.5495 25.0072 42.5625 24.9652 42.5612H24.5588L26.1021 38.8582H26.6371L28.201 42.5612ZM25.6546 41.1863H27.1053L26.4931 39.6791C26.4463 39.5658 26.4076 39.4495 26.3773 39.3311L26.3182 39.5247C26.3002 39.5836 26.2796 39.6375 26.2616 39.6816L25.6546 41.1863Z"/>
<path d="M30.4233 38.8754C30.4541 38.8915 30.4805 38.9141 30.5005 38.9416L32.7511 41.7329C32.7511 41.6887 32.7511 41.6446 32.7511 41.603C32.7511 41.5613 32.7511 41.5197 32.7511 41.4804V38.8582H33.2115V42.5612H32.9543C32.9178 42.5622 32.8816 42.5547 32.8489 42.5391C32.8171 42.5215 32.7892 42.4982 32.7666 42.4705L30.5185 39.6817C30.521 39.7241 30.521 39.7666 30.5185 39.8091C30.5185 39.8508 30.5185 39.8875 30.5185 39.9218V42.5612H30.0581V38.8582H30.3308C30.3626 38.8574 30.3942 38.8632 30.4233 38.8754Z"/>
<path d="M37.0029 41.0884V42.5588H36.4884V41.0884L35.066 38.8584H35.5265C35.5661 38.8561 35.6053 38.8674 35.6371 38.8902C35.6651 38.914 35.6886 38.9422 35.7065 38.9735L36.5965 40.4121C36.6325 40.4733 36.6634 40.5297 36.6891 40.5836C36.7148 40.6375 36.7354 40.689 36.7534 40.7405L36.8203 40.5812C36.8452 40.5229 36.8744 40.4664 36.9077 40.4121L37.7848 38.9637C37.8033 38.9348 37.8258 38.9084 37.8517 38.8853C37.8822 38.8599 37.9218 38.8467 37.9623 38.8486H38.4279L37.0029 41.0884Z"/>
<path d="M16.0862 32.6443C16.31 32.6712 16.5363 32.6933 16.7652 32.7129C20.2358 31.2337 23.1718 28.8127 25.2062 25.7526C27.2406 22.6924 28.2832 19.1289 28.2036 15.5073L24.3788 11.8633C25.1565 15.7191 24.7927 19.705 23.3282 23.3751C21.8636 27.0452 19.3561 30.2546 16.0862 32.6443Z"/>
<path d="M14.7204 32.4748L14.8233 32.4944C18.3175 30.1132 20.9816 26.788 22.4709 22.9488C23.9603 19.1097 24.2065 14.9331 23.1776 10.9592L17.7298 5.76904C19.9333 10.0353 20.8202 14.8098 20.2875 19.5374C19.7547 24.265 17.8242 28.7514 14.7204 32.4748Z"/>
<path d="M33.1961 19.7861C32.2706 23.7654 30.0227 27.3541 26.7863 30.0196C25.8411 30.8023 24.8216 31.4996 23.7409 32.1025C26.3763 31.3646 28.7985 30.0598 30.8209 28.289C32.8433 26.5181 34.4119 24.3284 35.4056 21.8887L33.1961 19.7861Z"/>
<path d="M32.3293 19.2002L29.1835 16.2031C29.1234 19.6201 28.1038 22.9594 26.2307 25.8739C24.3576 28.7885 21.6994 31.1718 18.5323 32.7764H18.5477C19.2535 32.7761 19.9586 32.736 20.6595 32.6563C23.6193 31.5053 26.2339 29.6742 28.2702 27.3262C30.3065 24.9782 31.701 22.1865 32.3293 19.2002Z"/>
<path d="M15.1757 3.5803L11.4229 0C8.06808 1.23513 5.18278 3.40643 3.14464 6.22973C1.1065 9.05304 0.0104686 12.3968 0 15.8234H0C0.0125737 19.6097 1.3502 23.2838 3.80116 26.2643C6.25213 29.2448 9.67642 31.3614 13.5321 32.2791C16.974 28.2838 18.9892 23.347 19.2847 18.186C19.5803 13.025 18.1409 7.90862 15.1757 3.5803Z"/>
<path d="M41 18.649C40.9864 14.1568 39.1073 9.85223 35.7732 6.67574C32.4391 3.49924 27.921 1.70898 23.2059 1.69605C21.0271 1.6939 18.8668 2.07696 16.8347 2.82576L39.8117 24.7166C40.5984 22.7815 41.0014 20.7241 41 18.649Z"/>
</symbol>
</defs>
</svg>
